<?xml version="1.0" encoding="utf-8"?>
<svg width="407" height="178" viewBox="0 0 407 178" fill="none" xmlns="http://www.w3.org/2000/svg">
  <defs>
    <path id="path_1" d="M30.7511 0L407 0L376.249 178L0 178L30.7511 0Z" />
  </defs>
  <g>
    <g>
      <use p4:href="#path_1" fill="#F6F8FA" fill-rule="evenodd" xmlns:p4="http://www.w3.org/1999/xlink" />
      <use p4:href="#path_1" fill="#0969DA" fill-rule="evenodd" xmlns:p4="http://www.w3.org/1999/xlink" />
    </g>
    <g transform="translate(32 20.504)">
      <path d="M35.3507 7.99996L37 0.0176676L1.53033 0L0 8L35.3507 7.99996Z" fill="#F6F8FA" fill-rule="evenodd" transform="translate(287.54 0)" />
      <path d="M56.3417 7.99996L58 0.0176659L1.53876 0L0 8L56.3417 7.99996Z" fill="#F6F8FA" fill-rule="evenodd" transform="translate(285.5 10.711)" />
      <g transform="translate(0 17.745)">
        <path d="M145.007 119.349L148.353 102.998L125.018 102.998C125.018 102.998 113.473 109.022 102.9 109.022C92.3259 109.022 82.7238 102.998 82.7238 102.998L38.3997 102.998L51.2038 42.0149L90.1329 42.0149C90.1329 42.0149 100.05 38.8307 109.612 38.8307C119.175 38.8307 128.384 42.0149 128.384 42.0149L164.534 42.0149L152.33 26.5221L54.4567 26.5221L60.0254 0L39.9873 0L34.3979 26.5221L17.5036 26.5221L14.5 42.0149L31.1329 42.0149L18.2738 103.031L3 103.031L0 119.349L145.007 119.349ZM80.3515 117.59C86.2156 119.936 100.733 117.59 100.733 117.59C100.733 117.59 115.636 119.936 122.187 117.59C128.737 115.244 158.61 98.8351 159.042 91.8401L128.151 91.9259C126.291 96.5036 123.045 100.08 118.411 102.655C113.777 105.23 108.47 106.517 102.492 106.517C96.399 106.517 91.3931 105.373 87.4741 103.084C83.5551 100.795 80.7376 97.5765 79.0212 93.428C77.3335 89.2508 76.9618 84.4156 77.9057 78.9224L78.1084 77.8495L151.021 77.8495L152.222 71.3692C153.166 64.1021 152.852 57.5931 151.278 51.8425C149.705 46.0917 147.059 41.1992 143.34 37.1652C139.65 33.1311 135.016 30.0555 129.438 27.9382C123.889 25.8211 95.5568 26.542 95.5568 26.542C95.5568 26.542 94.4538 26.2645 87.4741 29.2686C80.4945 32.2442 74.7162 36.4642 70.1393 41.9288C65.591 47.3649 62.5589 54.0168 61.0428 61.8847L58.7258 71.8842C57.3243 79.1513 57.267 85.8031 58.5541 91.8401C59.8415 97.8769 62.3301 103.098 66.0202 107.505C69.7103 111.882 74.4873 115.244 80.3515 117.59L80.3515 117.59ZM80.5988 64.6742L80.8664 63.2581C81.696 58.4515 83.2836 54.2744 85.6292 50.7266C87.9748 47.1503 91.1929 44.3608 95.2834 42.358C99.4026 40.3552 104.265 39.3539 109.872 39.3539C115.278 39.3539 119.827 40.3552 123.517 42.358C127.207 44.3608 129.924 47.1789 131.669 50.8125C133.443 54.446 134.029 58.8378 133.428 63.9877L133.325 64.6742L80.5988 64.6742L80.5988 64.6742ZM241.676 119.349L267.163 119.349L270.51 102.998L249.571 102.998L262.375 42.0147L282.438 42.0147L285.613 26.5221L265.628 26.5221L271.196 0L251.158 0L245.569 26.5221L228.675 26.5221L213.439 42.0147L242.304 42.0147L229.466 102.93L213.354 102.93C212.295 108.08 214.898 116.889 217.015 119.349C217.015 119.349 236.527 119.349 241.676 119.349ZM176.807 70.2963L128.964 119.349L152.177 119.349L185.946 83.8578L186.976 83.8578L206.67 119.349L229.326 119.349L201.736 71.0259L246.188 26.522L222.847 26.522L191.738 59.0523L190.666 59.0523L172.902 26.522L150.762 26.522L176.807 70.2963L176.807 70.2963Z" fill="#F6F8FA" />
        <path d="M7.88131 21.7634C8.82983 22.2899 9.94476 22.5532 11.226 22.5532C12.5321 22.5532 13.7066 22.3098 14.7495 21.8231C15.7974 21.3313 16.6714 20.6135 17.3717 19.6698C18.0768 18.7211 18.5511 17.5762 18.7944 16.235L19.2563 13.9477C19.4996 12.5817 19.4972 11.3772 19.2489 10.3341C19.0055 9.28601 18.5884 8.40685 17.9974 7.69655C17.4114 6.98128 16.6913 6.43986 15.8371 6.07231C14.983 5.70473 14.0766 5.52094 13.1181 5.52094C12.1646 5.52094 11.2608 5.69478 10.4066 6.04252C9.55242 6.39021 8.87948 6.86953 8.38793 7.48048L8.14944 7.48048L9.73617 0L4.67072 0L0 22.2477L4.48449 22.2477L5.61672 19.7443L5.82536 19.7443C6.2524 20.5589 6.93778 21.2319 7.88131 21.7634L7.88131 21.7634ZM11.6209 18.5074C11.0945 18.7608 10.4862 18.8875 9.79581 18.8875C8.96149 18.8875 8.23899 18.6813 7.62813 18.269C7.0172 17.8518 6.57016 17.2458 6.28723 16.4511L7.47919 10.8035C7.88145 10.277 8.373 9.87713 8.95409 9.60393C9.53518 9.32577 10.1907 9.1867 10.9207 9.1867C11.735 9.1867 12.4104 9.36054 12.947 9.70821C13.4882 10.0509 13.8606 10.5476 14.0643 11.1984C14.2678 11.8491 14.2778 12.6339 14.094 13.5528L13.6397 15.7805C13.5156 16.4312 13.2797 16.985 12.932 17.442C12.5893 17.899 12.1524 18.2541 11.6209 18.5074L11.6209 18.5074ZM35.1537 22.2477L38.5655 5.85623L33.5298 5.85623L31.1833 16.9354C30.6966 17.5463 30.1006 18.0207 29.3955 18.3585C28.6953 18.6913 27.9578 18.8576 27.1831 18.8576C26.4729 18.8576 25.9092 18.7161 25.4921 18.433C25.0749 18.1499 24.8092 17.74 24.695 17.2037C24.5857 16.6622 24.6031 16.0239 24.7471 15.2888L26.7286 5.85623L21.6631 5.85623L19.6517 15.5049C19.344 16.9702 19.3415 18.2269 19.6443 19.2749C19.9522 20.323 20.5383 21.1326 21.4024 21.7039C22.2665 22.2701 23.3616 22.5532 24.6875 22.5532C25.7653 22.5532 26.8056 22.3595 27.8088 21.9721C28.8169 21.5846 29.6662 21.0059 30.3564 20.2361L30.5725 20.2361L30.5128 22.2477L35.1537 22.2477L35.1537 22.2477ZM39.9117 5.85624L36.4924 22.2477L41.5282 22.2477L43.8746 11.1686C44.3861 10.5775 44.987 10.1106 45.6774 9.76792C46.3676 9.42014 47.1002 9.24635 47.8748 9.24635C48.5849 9.24635 49.1487 9.39035 49.5658 9.67847C49.983 9.96162 50.2512 10.3738 50.3704 10.9153C50.4944 11.4517 50.4771 12.095 50.3181 12.845L48.3293 22.2477L53.3947 22.2477L55.4135 12.6066C55.7164 11.1612 55.7141 9.90941 55.4061 8.85147C55.1031 7.79345 54.5247 6.97887 53.6705 6.40762C52.8162 5.83635 51.7186 5.55078 50.3779 5.55078C49.3201 5.55078 48.287 5.74454 47.2789 6.13196C46.2708 6.51938 45.4116 7.10054 44.7014 7.87539L44.4854 7.87539L44.5451 5.85624L39.9117 5.85624L39.9117 5.85624ZM60.0043 21.9422C61.0917 22.3496 62.3384 22.5532 63.7437 22.5532C65.164 22.5532 66.5 22.3148 67.7514 21.8379C69.0029 21.3562 70.0706 20.6483 70.9545 19.7145C71.8386 18.7807 72.4246 17.6606 72.7124 16.3542L67.7365 16.3542C67.5726 16.8857 67.3169 17.3452 66.9692 17.7326C66.6264 18.1201 66.2044 18.4156 65.7028 18.6192C65.2063 18.8229 64.6426 18.9247 64.0118 18.9247C63.2221 18.9247 62.5569 18.7732 62.0156 18.4702C61.4791 18.1623 61.1092 17.7227 60.9055 17.1515C60.7019 16.5803 60.6919 15.8998 60.8757 15.11L61.4493 12.1744C61.6132 11.5436 61.8615 11.0096 62.1942 10.5725C62.5319 10.1354 62.969 9.80013 63.5053 9.56672C64.0466 9.33321 64.6748 9.21647 65.3898 9.21647C66.3236 9.21647 67.0685 9.44998 67.6248 9.91687C68.1859 10.3838 68.4789 11.0444 68.5037 11.8987L73.383 11.8987C73.3432 10.6172 72.9908 9.50457 72.3252 8.56084C71.6648 7.61213 70.7557 6.87447 69.5988 6.34796C68.4417 5.81649 67.0884 5.55075 65.5389 5.55075C63.9548 5.55075 62.5095 5.81156 61.2034 6.33307C59.9024 6.84966 58.8197 7.59718 57.9554 8.57575C57.0914 9.55426 56.5078 10.7638 56.205 12.2042L55.8698 13.7614C55.6066 15.1075 55.6015 16.3244 55.8551 17.4122C56.1082 18.5 56.59 19.4264 57.3001 20.1914C58.0153 20.9513 58.9168 21.535 60.0043 21.9422L60.0043 21.9422ZM76.771 1.52588e-05L72.1002 22.2477L77.136 22.2477L79.4526 11.1984C79.9839 10.5875 80.5999 10.1106 81.3001 9.76785C82.0003 9.4202 82.7378 9.24629 83.5125 9.24629C84.2227 9.24629 84.7814 9.39038 85.1885 9.67846C85.5958 9.96157 85.8589 10.3739 85.9783 10.9153C86.1024 11.4517 86.085 12.0949 85.9261 12.845L83.9372 22.2477L89.0026 22.2477L91.0214 12.6066C91.3241 11.1612 91.322 9.90943 91.0138 8.85143C90.711 7.79344 90.1374 6.97881 89.293 6.40761C88.4489 5.83641 87.3562 5.55075 86.0155 5.55075C84.9378 5.55075 83.8998 5.74449 82.9017 6.13194C81.9034 6.51939 81.0692 7.1005 80.3987 7.8754L80.1826 7.8754L81.8364 1.52588e-05L76.771 1.52588e-05L76.771 1.52588e-05ZM95.6411 21.9571C96.7487 22.3545 98.0051 22.5532 99.4107 22.5532C101.079 22.5532 102.569 22.2949 103.88 21.7783C105.191 21.2568 106.279 20.4993 107.143 19.5059C108.007 18.5075 108.571 17.3154 108.834 15.9295L109.169 14.283C109.457 12.9419 109.467 11.7323 109.199 10.6544C108.936 9.57165 108.442 8.65522 107.717 7.90512C106.996 7.15013 106.083 6.56904 104.975 6.1617C103.868 5.75436 102.601 5.55075 101.176 5.55075C99.5919 5.55075 98.1369 5.80654 96.8108 6.31818C95.49 6.82482 94.3975 7.57737 93.5333 8.57575C92.6691 9.57411 92.0957 10.7836 91.8124 12.2042L91.4474 13.8285C91.1791 15.1696 91.1768 16.3791 91.44 17.4569C91.7083 18.5348 92.1973 19.4562 92.9073 20.2212C93.6223 20.9811 94.5341 21.5598 95.6411 21.9571L95.6411 21.9571ZM101.541 18.5745C101.015 18.808 100.397 18.9247 99.6867 18.9247C98.8922 18.9247 98.219 18.7782 97.6681 18.4851C97.1216 18.1871 96.7417 17.7525 96.5282 17.1812C96.3147 16.6101 96.2997 15.9196 96.4832 15.1099L97.0869 12.1446C97.2308 11.5138 97.4694 10.9798 97.8018 10.5427C98.1399 10.1056 98.5715 9.77032 99.0981 9.53693C99.6295 9.30342 100.253 9.18668 100.968 9.18668C101.777 9.18668 102.453 9.33569 102.994 9.6337C103.535 9.92684 103.913 10.3589 104.126 10.9302C104.34 11.4964 104.355 12.1967 104.171 13.0312L103.56 15.9593C103.436 16.5902 103.2 17.1241 102.853 17.5612C102.51 17.9984 102.073 18.3361 101.541 18.5745L101.541 18.5745Z" fill="#F6F8FA" transform="translate(58.132 1.251)" />
      </g>
    </g>
  </g>
</svg>